<svg width="20" height="16" viewBox="0 0 20 16" fill="none" xmlns="http://www.w3.org/2000/svg">
<path d="M13.0196 3.10745H7.24706L6.09882 1.74274C6.0602 1.69631 6.00231 1.67027 5.94196 1.67215H1.28471C0.573647 1.67733 0 2.25521 0 2.96627V11.36C0.000862745 12.0735 0.579059 12.6517 1.29255 12.6525H13.0196C13.7331 12.6517 14.3113 12.0735 14.3122 11.36V4.4C14.3113 3.68651 13.7331 3.10831 13.0196 3.10745Z" fill="#757897"/>
<path d="M14.7152 1.43539H8.94112L7.79289 0.0706837C7.75426 0.0242523 7.69638 -0.00178689 7.63602 9.54656e-05H2.98034C2.33516 0.00115429 1.78959 0.477782 1.7019 1.11696H5.94818C6.17085 1.11641 6.38226 1.21468 6.52543 1.38519L7.50583 2.55068H13.0196C14.0394 2.55241 14.8657 3.37872 14.8674 4.39853V10.9679C15.514 10.8873 15.9994 10.338 15.9999 9.68637V2.72637C15.9983 2.01653 15.425 1.44057 14.7152 1.43539Z" fill="#757897"/>
<rect x="2.3999" y="8.79999" width="4.8" height="1.6" rx="0.8" fill="white"/>
<circle cx="14.4" cy="9.6" r="5.6" fill="white"/>
<path d="M13.4746 8.89686C13.6423 8.89686 13.7824 8.84795 13.8956 8.77202C13.8015 8.86477 13.6965 8.98793 13.608 9.15064C13.4826 9.38114 13.4042 9.66472 13.4042 10.0143C13.4042 10.1825 13.4184 10.4399 13.5801 10.6487C13.3929 10.83 13.2779 11.0844 13.2779 11.3601C13.2779 11.8781 13.6934 12.3466 14.2581 12.3466C14.8143 12.3466 15.2446 11.8868 15.2446 11.3601C15.2446 11.0878 15.1321 10.8399 14.9513 10.6607C15.0929 10.4967 15.1245 10.3075 15.1245 10.1786C15.1245 9.99881 15.1312 9.96 15.1404 9.93494C15.1404 9.93481 15.1405 9.93465 15.1405 9.93447C15.143 9.92751 15.1591 9.88222 15.2858 9.78304C15.3785 9.71099 15.595 9.5401 15.7894 9.29235C15.9827 9.04609 16.186 8.68349 16.186 8.23257C16.186 7.26008 15.31 6.69005 14.3402 6.69005C13.3046 6.69005 12.5955 7.33434 12.5955 8.03671C12.5955 8.31821 12.7217 8.54877 12.9072 8.69837C13.0789 8.83691 13.2878 8.89686 13.4746 8.89686ZM14.0523 8.633C14.0874 8.59279 14.1145 8.55494 14.1329 8.52857C14.1488 8.50561 14.1576 8.49252 14.1645 8.48222C14.1724 8.47055 14.1778 8.46247 14.1886 8.44767C14.1987 8.43378 14.2047 8.42683 14.2077 8.42376C14.2166 8.42024 14.2489 8.41033 14.3212 8.41033C14.3235 8.41033 14.3257 8.41034 14.3279 8.41037C14.2939 8.44322 14.2516 8.47814 14.1965 8.52094C14.1849 8.52998 14.1716 8.54021 14.1572 8.55126C14.1252 8.57578 14.088 8.60434 14.0523 8.633ZM14.3914 8.33107C14.3916 8.33102 14.3914 8.33224 14.3903 8.33485C14.3906 8.33241 14.3912 8.33111 14.3914 8.33107ZM14.2099 8.42167C14.2099 8.42172 14.2095 8.42216 14.2086 8.42277L14.2099 8.42167ZM10.1001 9.59999C10.1001 7.22295 12.0233 5.29999 14.4001 5.29999C16.7771 5.29999 18.7001 7.22316 18.7001 9.59999C18.7001 11.977 16.7769 13.9 14.4001 13.9C12.0231 13.9 10.1001 11.9768 10.1001 9.59999Z" fill="#757897" stroke="#757897"/>
</svg>
